<svg xmlns="http://www.w3.org/2000/svg" width="137" height="40" viewBox="0 0 137 40">
  <g id="Vector_Smart_Object" data-name="Vector Smart Object" transform="translate(-892 -4047)">
    <g id="Vector_Smart_Object-2" data-name="Vector Smart Object" transform="translate(805.406 3396.032)">
      <g id="Сгруппировать_51" data-name="Сгруппировать 51">
        <path id="Контур_110" data-name="Контур 110" d="M168.2,664.728a3.942,3.942,0,0,1-5.4,0,3.771,3.771,0,0,1,0-5.316,3.942,3.942,0,0,1,5.4,0,3.771,3.771,0,0,1,0,5.316Zm-.548-2.653a2.358,2.358,0,0,0-.62-1.646,2.048,2.048,0,0,0-3.05,0,2.488,2.488,0,0,0,0,3.288,2.058,2.058,0,0,0,3.05,0A2.339,2.339,0,0,0,167.652,662.075Z" fill="#1a1818"/>
        <path id="Контур_111" data-name="Контур 111" d="M172.729,665.724v-7.215h1.613v5.781h3.081v1.435Z" fill="#1a1818"/>
        <path id="Контур_112" data-name="Контур 112" d="M186.191,659.453a3.381,3.381,0,0,1,1.034,2.627,3.545,3.545,0,0,1-1.008,2.663,4.257,4.257,0,0,1-3.076.981h-2.471v-7.215h2.554A4.249,4.249,0,0,1,186.191,659.453Zm-1.184,4.289a2.114,2.114,0,0,0,.595-1.621,2.165,2.165,0,0,0-.595-1.636,2.544,2.544,0,0,0-1.825-.573h-.9V664.3h1.024A2.394,2.394,0,0,0,185.007,663.742Z" fill="#1a1818"/>
        <path id="Контур_113" data-name="Контур 113" d="M148.368,681.166l1.84-4.594h1.747l-2.905,7.214h-1.364l-2.907-7.214h1.749Z" fill="#1a1818"/>
        <path id="Контур_114" data-name="Контур 114" d="M154.882,676.573H156.5v7.214h-1.613Z" fill="#1a1818"/>
        <path id="Контур_115" data-name="Контур 115" d="M165.4,676.573h1.613v7.214H165.4l-3.443-4.52v4.52h-1.614v-7.214h1.51l3.548,4.644Z" fill="#1a1818"/>
        <path id="Контур_116" data-name="Контур 116" d="M173.918,677.966v5.821H172.3v-5.821h-2.047v-1.394h5.707v1.394Z" fill="#1a1818"/>
        <path id="Контур_117" data-name="Контур 117" d="M183.833,683.787l-.672-1.557h-3.03l-.672,1.557h-1.716l3.123-7.214h1.561l3.123,7.214Zm-2.182-5.067-.91,2.1h1.809Z" fill="#1a1818"/>
        <path id="Контур_118" data-name="Контур 118" d="M193.149,680.114h1.623v2.56a3.8,3.8,0,0,1-2.978,1.2,3.68,3.68,0,0,1-2.673-1.053,3.551,3.551,0,0,1-1.08-2.658,3.59,3.59,0,0,1,1.1-2.679,3.671,3.671,0,0,1,2.657-1.074,3.933,3.933,0,0,1,2.7,1.022l-.838,1.206a3.213,3.213,0,0,0-.894-.582,2.4,2.4,0,0,0-.884-.16,2.116,2.116,0,0,0-1.551.625,2.491,2.491,0,0,0-.026,3.284,1.96,1.96,0,0,0,1.442.613,2.779,2.779,0,0,0,1.4-.32Z" fill="#1a1818"/>
        <path id="Контур_119" data-name="Контур 119" d="M203.489,676.573v1.435h-3.6v1.485h3.236v1.374h-3.236v1.5H203.6v1.423h-5.325v-7.214Z" fill="#1a1818"/>
      </g>
      <g id="Сгруппировать_52" data-name="Сгруппировать 52">
        <path id="Контур_120" data-name="Контур 120" d="M223.594,690.968h-137v-40h137Zm-135.708-1.29H222.3V652.258H87.887Z" fill="#1a1818"/>
      </g>
      <g id="Сгруппировать_53" data-name="Сгруппировать 53">
        <path id="Контур_121" data-name="Контур 121" d="M94.883,668.523h.5a.209.209,0,0,1,.136.043.238.238,0,0,1,.078.106l1.305,3.262c.028.072.056.152.081.239s.05.174.074.268c.019-.094.041-.183.066-.268s.05-.166.08-.239l1.3-3.262a.249.249,0,0,1,.076-.1.207.207,0,0,1,.137-.047h.5l-1.887,4.623H96.77Z" fill="#030504"/>
      </g>
      <g id="Сгруппировать_54" data-name="Сгруппировать 54">
        <path id="Контур_122" data-name="Контур 122" d="M105.146,658.85a.159.159,0,0,1,.052.015.23.23,0,0,1,.045.032.549.549,0,0,1,.048.054l2.679,3.48q-.006-.083-.012-.163c0-.053-.005-.1-.005-.15v-3.275h.549v4.623h-.313a.252.252,0,0,1-.124-.027.3.3,0,0,1-.1-.086l-2.678-3.481c0,.054.008.107.009.159s0,.1,0,.142v3.294h-.549v-4.623h.323A.378.378,0,0,1,105.146,658.85Z" fill="#030504"/>
      </g>
      <g id="Сгруппировать_55" data-name="Сгруппировать 55">
        <path id="Контур_123" data-name="Контур 123" d="M107.875,682.75a2.889,2.889,0,0,1-.867.125A2.767,2.767,0,0,1,106,682.7a2.247,2.247,0,0,1-.768-.484,2.1,2.1,0,0,1-.489-.746,2.589,2.589,0,0,1-.172-.96,2.676,2.676,0,0,1,.167-.964,2.127,2.127,0,0,1,.473-.747,2.1,2.1,0,0,1,.746-.483,2.7,2.7,0,0,1,.982-.17,3.008,3.008,0,0,1,.511.04,2.476,2.476,0,0,1,.437.115,2.14,2.14,0,0,1,.691.43l-.178.283a.173.173,0,0,1-.107.083.184.184,0,0,1-.147-.031c-.052-.03-.111-.065-.178-.11a1.561,1.561,0,0,0-.243-.124,1.906,1.906,0,0,0-.34-.1,2.188,2.188,0,0,0-.463-.044,1.872,1.872,0,0,0-.708.129,1.507,1.507,0,0,0-.54.364,1.62,1.62,0,0,0-.342.573,2.5,2.5,0,0,0,.005,1.538,1.633,1.633,0,0,0,.355.582,1.5,1.5,0,0,0,.561.366,2.034,2.034,0,0,0,.739.126,2.233,2.233,0,0,0,.573-.072,1.771,1.771,0,0,0,.249-.084c.079-.034.16-.072.242-.115v-1.019h-.721a.138.138,0,0,1-.1-.035.119.119,0,0,1-.037-.088V680.6h1.423v1.774A2.615,2.615,0,0,1,107.875,682.75Z" fill="#030504"/>
      </g>
      <g id="Сгруппировать_56" data-name="Сгруппировать 56">
        <path id="Контур_124" data-name="Контур 124" d="M118.232,668.523v.526h-1.5v4.1h-.624v-4.1h-1.5v-.526Z" fill="#030504"/>
      </g>
      <g id="Сгруппировать_57" data-name="Сгруппировать 57">
        <rect id="Прямоугольник_12" data-name="Прямоугольник 12" width="0.646" height="27.394" transform="matrix(0.708, -0.707, 0.708, 0.707, 96.705, 661.518)" fill="#030504"/>
      </g>
      <g id="Сгруппировать_58" data-name="Сгруппировать 58">
        <rect id="Прямоугольник_13" data-name="Прямоугольник 13" width="27.394" height="0.646" transform="matrix(0.708, -0.707, 0.708, 0.707, 96.705, 680.417)" fill="#030504"/>
      </g>
      <g id="Сгруппировать_59" data-name="Сгруппировать 59">
        <path id="Контур_125" data-name="Контур 125" d="M126.66,690.968H86.594v-40H126.66Zm-38.774-1.29h37.481V652.258H87.887Z" fill="#030504"/>
      </g>
      <g id="Сгруппировать_60" data-name="Сгруппировать 60">
        <rect id="Прямоугольник_14" data-name="Прямоугольник 14" width="32.311" height="1.29" transform="translate(158.325 670.323)" fill="#1a1818"/>
      </g>
    </g>
    <path id="Color_Overlay" data-name="Color Overlay" d="M932.067,4087H892v-40h137v40Zm0-1.29h95.641v-37.42H932.067Zm-38.775,0h37.482v-37.42H893.292Zm101.236-6.859a3.55,3.55,0,0,1-1.081-2.659,3.586,3.586,0,0,1,1.1-2.678,3.67,3.67,0,0,1,2.658-1.074,3.932,3.932,0,0,1,2.7,1.021l-.837,1.206a3.174,3.174,0,0,0-.894-.581,2.384,2.384,0,0,0-.883-.161,2.119,2.119,0,0,0-1.552.625,2.493,2.493,0,0,0-.026,3.283,1.958,1.958,0,0,0,1.442.614,2.782,2.782,0,0,0,1.4-.32v-1.982h1.624v2.559a3.8,3.8,0,0,1-2.979,1.2A3.679,3.679,0,0,1,994.528,4078.851Zm9.155.968v-7.214h5.212v1.435h-3.6v1.484h3.236v1.375H1005.3v1.5h3.711v1.423Zm-14.445,0-.672-1.557h-3.03l-.671,1.557H983.15l3.121-7.214h1.562l3.122,7.214Zm-3.091-2.97h1.81l-.9-2.1Zm-8.436,2.97V4074h-2.047v-1.393h5.708V4074h-2.047v5.821Zm-6.905,0-3.444-4.52v4.52h-1.615v-7.214h1.511l3.548,4.643v-4.643h1.612v7.214Zm-10.517,0v-7.214H961.9v7.214Zm-7.2,0-2.907-7.214h1.749l1.84,4.594,1.84-4.594h1.747l-2.9,7.214Zm-41.688-1.084a2.278,2.278,0,0,1-.767-.484,2.085,2.085,0,0,1-.489-.747,2.589,2.589,0,0,1-.172-.959,2.683,2.683,0,0,1,.167-.964,2.069,2.069,0,0,1,1.22-1.23,2.686,2.686,0,0,1,.982-.17,3.059,3.059,0,0,1,.511.04,2.542,2.542,0,0,1,.437.115,2.222,2.222,0,0,1,.37.185,2.192,2.192,0,0,1,.321.245l-.178.283a.173.173,0,0,1-.108.081.183.183,0,0,1-.147-.03c-.052-.03-.112-.065-.178-.111a1.776,1.776,0,0,0-.243-.124,1.952,1.952,0,0,0-.341-.1,2.159,2.159,0,0,0-.463-.044,1.866,1.866,0,0,0-.708.129,1.493,1.493,0,0,0-.541.364,1.609,1.609,0,0,0-.343.573,2.5,2.5,0,0,0,.005,1.538,1.644,1.644,0,0,0,.356.582,1.5,1.5,0,0,0,.561.366,2.027,2.027,0,0,0,.739.126,2.335,2.335,0,0,0,.3-.018,2.259,2.259,0,0,0,.271-.053,1.705,1.705,0,0,0,.249-.084c.078-.033.16-.072.241-.115v-1.019h-.721a.134.134,0,0,1-.1-.036.113.113,0,0,1-.038-.087v-.355h1.423v1.775a2.607,2.607,0,0,1-.745.375,2.879,2.879,0,0,1-.868.125A2.771,2.771,0,0,1,911.4,4078.735Zm.628-11.279-9.465,9.45-.456-.456,9.464-9.45-9.464-9.449.456-.456,9.465,9.449,9.465-9.45.456.457-9.465,9.45,9.465,9.45-.456.456Zm9.482,1.722v-4.1h-1.5v-.527h3.625v.527h-1.5v4.1Zm-19.339,0-1.887-4.624h.5a.206.206,0,0,1,.135.043.24.24,0,0,1,.078.106l1.3,3.262c.029.072.055.152.082.239s.05.174.074.268c.018-.093.041-.183.066-.268a2.394,2.394,0,0,1,.08-.239l1.3-3.262a.256.256,0,0,1,.076-.1.21.21,0,0,1,.137-.046h.5l-1.886,4.624Zm61.555-1.532v-1.291h32.312v1.291Zm4.477-6.886a3.769,3.769,0,0,1,0-5.315,3.941,3.941,0,0,1,5.4,0,3.771,3.771,0,0,1,0,5.315,3.942,3.942,0,0,1-5.4,0Zm1.179-4.3a2.487,2.487,0,0,0,0,3.287,2.055,2.055,0,0,0,3.049,0,2.484,2.484,0,0,0,0-3.287,2.045,2.045,0,0,0-3.049,0Zm16.688,5.295v-7.215h2.554a4.249,4.249,0,0,1,2.967.945,3.379,3.379,0,0,1,1.034,2.627,3.548,3.548,0,0,1-1.008,2.664,4.258,4.258,0,0,1-3.075.979Zm1.613-1.424h1.023a2.393,2.393,0,0,0,1.7-.558,2.112,2.112,0,0,0,.595-1.621,2.165,2.165,0,0,0-.595-1.636,2.548,2.548,0,0,0-1.826-.572h-.9Zm-9.554,1.424v-7.215h1.613v5.781h3.08v1.434ZM913.6,4059.5a.246.246,0,0,1-.124-.028.291.291,0,0,1-.1-.086l-2.678-3.481c0,.054.008.108.009.159s0,.1,0,.142v3.295h-.549v-4.624h.323a.474.474,0,0,1,.071.005.216.216,0,0,1,.052.015.278.278,0,0,1,.045.033.556.556,0,0,1,.047.054l2.68,3.48c0-.056-.008-.11-.012-.163s-.005-.1-.005-.15v-3.275h.55v4.624Z" fill="#666"/>
  </g>
</svg>
