<svg xmlns="http://www.w3.org/2000/svg" width="70.002" height="46" viewBox="0 0 70.002 46">
  <g id="Vector_Smart_Object1" data-name="Vector Smart Object1" transform="translate(-1180.999 -4042)">
    <g id="Vector_Smart_Object1-2" data-name="Vector Smart Object1" transform="translate(280.802 2903.736)">
      <g id="Сгруппировать_25" data-name="Сгруппировать 25">
        <path id="Контур_72" data-name="Контур 72" d="M905.608,1180.233l2.777-6.843h2.635l-4.383,10.751h-2.058l-4.382-10.751h2.637Z" fill="#1a1818"/>
        <path id="Контур_73" data-name="Контур 73" d="M912.315,1173.391h2.431v10.751h-2.431Z" fill="#1a1818"/>
        <path id="Контур_74" data-name="Контур 74" d="M925.054,1173.391h2.433v10.751h-2.433l-5.193-6.736v6.736h-2.433v-10.751h2.277l5.349,6.921Z" fill="#1a1818"/>
        <path id="Контур_75" data-name="Контур 75" d="M934.784,1175.467v8.674h-2.431v-8.674h-3.089v-2.076h8.609v2.076Z" fill="#1a1818"/>
        <path id="Контур_76" data-name="Контур 76" d="M946.62,1184.141l-1.014-2.322h-4.569l-1.012,2.322h-2.589l4.708-10.751H944.5l4.709,10.751Zm-3.29-7.552-1.372,3.121h2.73Z" fill="#1a1818"/>
        <path id="Контур_77" data-name="Контур 77" d="M957.552,1178.666H960v3.813a5.758,5.758,0,0,1-4.49,1.785,5.583,5.583,0,0,1-4.032-1.57,5.62,5.62,0,0,1,.032-7.95,5.564,5.564,0,0,1,4.008-1.6,5.966,5.966,0,0,1,4.075,1.523l-1.261,1.8a4.817,4.817,0,0,0-1.35-.869,3.642,3.642,0,0,0-1.333-.238,3.218,3.218,0,0,0-2.339.929,3.677,3.677,0,0,0-.039,4.892,2.965,2.965,0,0,0,2.175.915,4.21,4.21,0,0,0,2.105-.478Z" fill="#1a1818"/>
        <path id="Контур_78" data-name="Контур 78" d="M970.028,1173.391v2.138H964.6v2.215h4.882v2.046H964.6v2.23h5.6v2.122h-8.031v-10.751Z" fill="#1a1818"/>
      </g>
      <g id="Сгруппировать_26" data-name="Сгруппировать 26">
        <path id="Контур_79" data-name="Контур 79" d="M929.137,1162.111a.323.323,0,0,1-.325-.32v-4.21h-4.269a.32.32,0,1,1,0-.641h4.919v4.851A.323.323,0,0,1,929.137,1162.111Z" fill="#030504"/>
      </g>
      <g id="Сгруппировать_27" data-name="Сгруппировать 27">
        <path id="Контур_80" data-name="Контур 80" d="M942.132,1162.111a.323.323,0,0,1-.325-.32v-4.851h4.919a.32.32,0,1,1,0,.641h-4.269v4.21A.323.323,0,0,1,942.132,1162.111Z" fill="#030504"/>
      </g>
      <g id="Сгруппировать_28" data-name="Сгруппировать 28">
        <path id="Контур_81" data-name="Контур 81" d="M946.725,1144.763h-4.919v-4.851a.325.325,0,0,1,.65,0v4.21h4.269a.32.32,0,1,1,0,.641Z" fill="#030504"/>
      </g>
      <g id="Сгруппировать_29" data-name="Сгруппировать 29">
        <path id="Контур_82" data-name="Контур 82" d="M929.462,1144.763h-4.919a.32.32,0,1,1,0-.641h4.269v-4.21a.325.325,0,0,1,.65,0Z" fill="#030504"/>
      </g>
      <g id="Сгруппировать_30" data-name="Сгруппировать 30">
        <path id="Контур_83" data-name="Контур 83" d="M942.132,1157.58a.325.325,0,0,1-.23-.095l-12.995-12.817a.318.318,0,0,1,0-.453.328.328,0,0,1,.46,0l12.995,12.817a.318.318,0,0,1,0,.453A.327.327,0,0,1,942.132,1157.58Z" fill="#030504"/>
      </g>
      <g id="Сгруппировать_31" data-name="Сгруппировать 31">
        <path id="Контур_84" data-name="Контур 84" d="M929.137,1157.58a.325.325,0,0,1-.23-.095.318.318,0,0,1,0-.453l12.995-12.817a.328.328,0,0,1,.46,0,.318.318,0,0,1,0,.453l-12.995,12.817A.327.327,0,0,1,929.137,1157.58Z" fill="#030504"/>
      </g>
      <g id="Сгруппировать_32" data-name="Сгруппировать 32">
        <path id="Контур_85" data-name="Контур 85" d="M938.883,1163.437a.326.326,0,0,1-.23-.094l-3.019-2.977-3.019,2.977a.33.33,0,0,1-.46,0,.319.319,0,0,1,0-.454l3.479-3.43,3.479,3.43a.319.319,0,0,1,0,.454A.326.326,0,0,1,938.883,1163.437Z" fill="#030504"/>
      </g>
      <g id="Сгруппировать_33" data-name="Сгруппировать 33">
        <path id="Контур_86" data-name="Контур 86" d="M948.07,1154.376a.322.322,0,0,1-.229-.095l-3.477-3.43,3.477-3.431a.327.327,0,0,1,.459,0,.316.316,0,0,1,0,.453l-3.017,2.979,3.017,2.977a.316.316,0,0,1,0,.453A.327.327,0,0,1,948.07,1154.376Z" fill="#030504"/>
      </g>
      <g id="Сгруппировать_34" data-name="Сгруппировать 34">
        <path id="Контур_87" data-name="Контур 87" d="M935.634,1142.241l-3.479-3.43a.318.318,0,0,1,0-.452.328.328,0,0,1,.46,0l3.019,2.976,3.019-2.976a.328.328,0,0,1,.46,0,.318.318,0,0,1,0,.452Z" fill="#030504"/>
      </g>
      <g id="Сгруппировать_35" data-name="Сгруппировать 35">
        <path id="Контур_88" data-name="Контур 88" d="M923.2,1154.376a.327.327,0,0,1-.23-.095.316.316,0,0,1,0-.453l3.017-2.977-3.017-2.979a.316.316,0,0,1,0-.453.327.327,0,0,1,.459,0l3.477,3.431-3.477,3.43A.322.322,0,0,1,923.2,1154.376Z" fill="#030504"/>
      </g>
      <g id="Сгруппировать_36" data-name="Сгруппировать 36">
        <path id="Контур_89" data-name="Контур 89" d="M944.823,1151.172H926.446a.32.32,0,1,1,0-.641h18.377a.32.32,0,1,1,0,.641Z" fill="#030504"/>
      </g>
      <g id="Сгруппировать_37" data-name="Сгруппировать 37">
        <path id="Контур_90" data-name="Контур 90" d="M935.634,1160.234a.323.323,0,0,1-.325-.32v-18.127a.325.325,0,0,1,.65,0v18.127A.323.323,0,0,1,935.634,1160.234Z" fill="#030504"/>
      </g>
    </g>
    <path id="Color_Overlay" data-name="Color Overlay" d="M1232.28,4086.43a5.62,5.62,0,0,1,.033-7.951,5.563,5.563,0,0,1,4.007-1.6,5.964,5.964,0,0,1,4.075,1.522l-1.261,1.8a4.824,4.824,0,0,0-1.35-.87,3.652,3.652,0,0,0-1.334-.238,3.218,3.218,0,0,0-2.339.929,3.677,3.677,0,0,0-.039,4.892,2.967,2.967,0,0,0,2.176.916,4.213,4.213,0,0,0,2.105-.479V4082.4h2.448v3.812a5.757,5.757,0,0,1-4.49,1.786A5.587,5.587,0,0,1,1232.28,4086.43Zm10.689,1.447v-10.751h7.861v2.138H1245.4v2.214h4.881v2.047H1245.4v2.229h5.6v2.123Zm-15.547,0-1.014-2.323h-4.57l-1.012,2.323h-2.589l4.709-10.751h2.355l4.709,10.751Zm-4.662-4.431h2.729l-1.357-3.12Zm-9.6,4.431V4079.2h-3.089v-2.077h8.609v2.077h-3.089v8.674Zm-7.3,0-5.192-6.736v6.736h-2.432v-10.751h2.277l5.348,6.921v-6.921h2.434v10.751Zm-12.739,0v-10.751h2.432v10.751Zm-7.736,0L1181,4077.126h2.637l2.774,6.843,2.777-6.843h2.636l-4.383,10.751Zm34.074-20.8-3.018-2.977-3.018,2.977a.331.331,0,0,1-.461,0,.319.319,0,0,1,0-.453l3.154-3.111v-8.156l-5.848,5.768v4.4a.325.325,0,0,1-.649,0v-4.21h-4.269a.321.321,0,1,1,0-.641h4.459l5.849-5.768h-8.271l-3.153,3.11a.321.321,0,0,1-.228.1.328.328,0,0,1-.231-.1.316.316,0,0,1,0-.452l3.017-2.977-3.017-2.978a.316.316,0,0,1,0-.453.327.327,0,0,1,.459,0l3.154,3.11h8.27l-5.848-5.767h-4.46a.321.321,0,1,1,0-.641h4.269v-4.209a.325.325,0,0,1,.649,0v4.4l5.848,5.768v-8.157l-3.154-3.109a.318.318,0,0,1,0-.452.327.327,0,0,1,.461,0l3.018,2.976,3.018-2.976a.328.328,0,0,1,.461,0,.32.32,0,0,1,0,.452l-3.154,3.109v8.157l5.847-5.768v-4.4a.325.325,0,0,1,.65,0v4.209h4.268a.321.321,0,1,1,0,.641h-4.459l-5.847,5.767h8.27l3.152-3.11a.329.329,0,0,1,.46,0,.316.316,0,0,1,0,.453l-3.018,2.978,3.018,2.977a.316.316,0,0,1,0,.452.33.33,0,0,1-.23.1.326.326,0,0,1-.23-.1l-3.152-3.11h-8.27l5.848,5.768h4.458a.321.321,0,1,1,0,.641h-4.268v4.21a.325.325,0,0,1-.65,0v-4.4l-5.847-5.767v8.156l3.154,3.11a.321.321,0,0,1,0,.453.33.33,0,0,1-.461,0Z" fill="#666"/>
  </g>
</svg>
