<svg xmlns="http://www.w3.org/2000/svg" width="130" height="29.001" viewBox="0 0 130 29.001">
  <g id="Vector_Smart_Object" data-name="Vector Smart Object" transform="translate(-1415 -4053)">
    <g id="Vector_Smart_Object-2" data-name="Vector Smart Object" transform="translate(295.842 2864.615)">
      <g id="Сгруппировать_71" data-name="Сгруппировать 71">
        <path id="Контур_142" data-name="Контур 142" d="M1154.418,1204.443l2.751-6.983h2.61l-4.342,10.971H1153.4l-4.34-10.971h2.612Z" fill="#030504"/>
        <path id="Контур_143" data-name="Контур 143" d="M1161.061,1197.46h2.408v10.971h-2.408Z" fill="#030504"/>
        <path id="Контур_144" data-name="Контур 144" d="M1173.679,1197.46h2.409v10.971h-2.409l-5.143-6.875v6.875h-2.41V1197.46h2.255l5.3,7.063Z" fill="#030504"/>
        <path id="Контур_145" data-name="Контур 145" d="M1183.317,1199.579v8.852h-2.408v-8.852h-3.059v-2.119h8.527v2.119Z" fill="#030504"/>
        <path id="Контур_146" data-name="Контур 146" d="M1195.04,1208.431l-1-2.37h-4.526l-1,2.37h-2.564l4.663-10.971h2.332l4.665,10.971Zm-3.259-7.706-1.359,3.185h2.7Z" fill="#030504"/>
        <path id="Контур_147" data-name="Контур 147" d="M1205.867,1202.844h2.425v3.891a5.619,5.619,0,0,1-4.447,1.822,5.5,5.5,0,0,1-5.609-5.644,5.5,5.5,0,0,1,1.647-4.072,5.426,5.426,0,0,1,3.97-1.632,5.81,5.81,0,0,1,4.036,1.554l-1.249,1.836a4.752,4.752,0,0,0-1.337-.887,3.511,3.511,0,0,0-1.321-.243,3.139,3.139,0,0,0-2.317.948,3.838,3.838,0,0,0-.039,4.993,2.9,2.9,0,0,0,2.155.934,4.072,4.072,0,0,0,2.085-.488Z" fill="#030504"/>
        <path id="Контур_148" data-name="Контур 148" d="M1218.225,1197.46v2.182h-5.376v2.26h4.836v2.087h-4.836v2.276h5.545v2.166h-7.954V1197.46Z" fill="#030504"/>
      </g>
      <g id="Сгруппировать_72" data-name="Сгруппировать 72">
        <path id="Контур_149" data-name="Контур 149" d="M1153.141,1214.611h.457v2.744h-.457Z" fill="#030504"/>
        <path id="Контур_150" data-name="Контур 150" d="M1158.3,1214.611h.457v2.744h-.494l-1.529-2v2h-.456v-2.744h.456l1.566,2.048Z" fill="#030504"/>
        <path id="Контур_151" data-name="Контур 151" d="M1162.456,1215.035v2.32H1162v-2.32h-.82v-.424h2.094v.424Z" fill="#030504"/>
        <path id="Контур_152" data-name="Контур 152" d="M1167.6,1214.611v.435h-1.44v.727h1.294v.411h-1.294v.734h1.487v.437H1165.7v-2.744Z" fill="#030504"/>
        <path id="Контур_153" data-name="Контур 153" d="M1172.31,1215.5a.8.8,0,0,1-.583.855l.707,1h-.581l-.645-.922h-.6v.922h-.456v-2.744h1a1.45,1.45,0,0,1,.885.212A.814.814,0,0,1,1172.31,1215.5Zm-.606.389a.5.5,0,0,0,.139-.39.426.426,0,0,0-.144-.37.947.947,0,0,0-.508-.1h-.579v.981h.568A.827.827,0,0,0,1171.7,1215.891Z" fill="#030504"/>
        <path id="Контур_154" data-name="Контур 154" d="M1174.9,1214.611h.454v2.744h-.454Z" fill="#030504"/>
        <path id="Контур_155" data-name="Контур 155" d="M1180.292,1216.975a1.422,1.422,0,0,1-2.434-1.012,1.4,1.4,0,0,1,1.421-1.418,1.386,1.386,0,0,1,1.013.407,1.458,1.458,0,0,1,0,2.023Zm-.335-1.716a.934.934,0,0,0-1.354,0,1.035,1.035,0,0,0,0,1.409.934.934,0,0,0,1.354,0,1.035,1.035,0,0,0,0-1.409Z" fill="#030504"/>
        <path id="Контур_156" data-name="Контур 156" d="M1185.362,1215.5a.8.8,0,0,1-.583.855l.707,1h-.581l-.644-.922h-.6v.922h-.456v-2.744h1a1.438,1.438,0,0,1,.883.212A.814.814,0,0,1,1185.362,1215.5Zm-.606.389a.5.5,0,0,0,.139-.39.425.425,0,0,0-.143-.37.954.954,0,0,0-.511-.1h-.578v.981h.568A.825.825,0,0,0,1184.756,1215.891Z" fill="#030504"/>
        <path id="Контур_157" data-name="Контур 157" d="M1192.979,1214.971a1.284,1.284,0,0,1,.39,1,1.356,1.356,0,0,1-.377,1.012,1.6,1.6,0,0,1-1.158.374h-.9v-2.744h.925A1.587,1.587,0,0,1,1192.979,1214.971Zm-.068,1.01c0-.628-.355-.942-1.062-.942h-.456v1.88h.506a1.082,1.082,0,0,0,.752-.238A.9.9,0,0,0,1192.911,1215.981Z" fill="#030504"/>
        <path id="Контур_158" data-name="Контур 158" d="M1197.784,1214.611v.435h-1.44v.727h1.294v.411h-1.294v.734h1.485v.437h-1.941v-2.744Z" fill="#030504"/>
        <path id="Контур_159" data-name="Контур 159" d="M1201.16,1214.972a.579.579,0,0,0-.327.084.275.275,0,0,0-.126.247.29.29,0,0,0,.126.255,1.906,1.906,0,0,0,.543.191,1.464,1.464,0,0,1,.625.288.678.678,0,0,1,.211.543.729.729,0,0,1-.266.582,1.053,1.053,0,0,1-.7.224,1.628,1.628,0,0,1-1.124-.443l.285-.348a1.285,1.285,0,0,0,.849.36.572.572,0,0,0,.35-.1.307.307,0,0,0,.13-.256.284.284,0,0,0-.124-.246,1.241,1.241,0,0,0-.417-.161,3.729,3.729,0,0,1-.452-.134,1.018,1.018,0,0,1-.274-.16.668.668,0,0,1-.239-.565.7.7,0,0,1,.272-.587,1.1,1.1,0,0,1,.674-.205,1.551,1.551,0,0,1,.512.088,1.318,1.318,0,0,1,.442.242l-.243.351a.893.893,0,0,0-.326-.182A1.226,1.226,0,0,0,1201.16,1214.972Z" fill="#030504"/>
        <path id="Контур_160" data-name="Контур 160" d="M1204.707,1214.611h.454v2.744h-.454Z" fill="#030504"/>
        <path id="Контур_161" data-name="Контур 161" d="M1209.712,1216.02h.456v.938a1.388,1.388,0,0,1-1.094.428,1.42,1.42,0,0,1,0-2.841,1.4,1.4,0,0,1,.97.345l-.243.353a.933.933,0,0,0-.319-.19,1.184,1.184,0,0,0-.372-.054,1,1,0,0,0-.7,1.678.9.9,0,0,0,.654.264,1.153,1.153,0,0,0,.644-.169Z" fill="#030504"/>
        <path id="Контур_162" data-name="Контур 162" d="M1214.72,1214.611h.456v2.744h-.494l-1.53-2v2h-.454v-2.744h.454l1.569,2.048Z" fill="#030504"/>
      </g>
      <g id="Сгруппировать_73" data-name="Сгруппировать 73">
        <path id="Контур_163" data-name="Контур 163" d="M1165.738,1188.813a.581.581,0,0,0-.326.084.275.275,0,0,0-.126.247.29.29,0,0,0,.126.255,1.91,1.91,0,0,0,.542.191,1.464,1.464,0,0,1,.627.288.683.683,0,0,1,.211.543.729.729,0,0,1-.266.582,1.056,1.056,0,0,1-.7.224,1.627,1.627,0,0,1-1.124-.443l.284-.348a1.283,1.283,0,0,0,.851.36.571.571,0,0,0,.349-.1.307.307,0,0,0,.13-.256.286.286,0,0,0-.122-.246,1.274,1.274,0,0,0-.418-.161,3.7,3.7,0,0,1-.453-.133,1.039,1.039,0,0,1-.274-.16.671.671,0,0,1-.238-.565.693.693,0,0,1,.272-.587,1.093,1.093,0,0,1,.673-.205,1.545,1.545,0,0,1,.514.088,1.317,1.317,0,0,1,.442.242l-.243.351a.919.919,0,0,0-.324-.182A1.242,1.242,0,0,0,1165.738,1188.813Z" fill="#030504"/>
        <path id="Контур_164" data-name="Контур 164" d="M1169.286,1188.452h.457v2.744h-.457Z" fill="#030504"/>
        <path id="Контур_165" data-name="Контур 165" d="M1174.444,1188.452h.457v2.744h-.494l-1.529-2v2h-.456v-2.744h.456l1.566,2.048Z" fill="#030504"/>
        <path id="Контур_166" data-name="Контур 166" d="M1178.813,1190.775a.941.941,0,0,0,.406-.08,1.372,1.372,0,0,0,.354-.258l.295.306a1.345,1.345,0,0,1-1.041.483,1.379,1.379,0,0,1-1.016-.4,1.467,1.467,0,0,1,.008-2.03,1.412,1.412,0,0,1,1.039-.409,1.347,1.347,0,0,1,1.048.471l-.288.322a1.347,1.347,0,0,0-.365-.264,1.031,1.031,0,0,0-.4-.073.947.947,0,0,0-.686.268.912.912,0,0,0-.279.687.956.956,0,0,0,.277.7A.88.88,0,0,0,1178.813,1190.775Z" fill="#030504"/>
        <path id="Контур_167" data-name="Контур 167" d="M1184.249,1188.452v.436h-1.44v.727h1.295v.411h-1.295v.734h1.487v.437h-1.941v-2.744Z" fill="#030504"/>
        <path id="Контур_168" data-name="Контур 168" d="M1189.536,1188.452h.979v2.744h-.432v-2.333h-.547Z" fill="#030504"/>
        <path id="Контур_169" data-name="Контур 169" d="M1193.852,1190.81a.6.6,0,0,0,.529-.247,1.191,1.191,0,0,0,.175-.668.977.977,0,0,1-.279.208.883.883,0,0,1-1.01-.15.878.878,0,0,1-.243-.65.853.853,0,0,1,.264-.654.928.928,0,0,1,.665-.247.894.894,0,0,1,.9.589,1.983,1.983,0,0,1,.14.761,2.347,2.347,0,0,1-.09.706,1.121,1.121,0,0,1-.243.447.968.968,0,0,1-.739.322,1.24,1.24,0,0,1-.793-.279l.228-.343a.844.844,0,0,0,.237.144A.7.7,0,0,0,1193.852,1190.81Zm.084-1.02a.579.579,0,0,0,.389-.131.425.425,0,0,0,.157-.341.493.493,0,0,0-.151-.361.51.51,0,0,0-.376-.153.536.536,0,0,0-.373.136.459.459,0,0,0-.147.348.514.514,0,0,0,.133.357A.478.478,0,0,0,1193.935,1189.79Z" fill="#030504"/>
        <path id="Контур_170" data-name="Контур 170" d="M1197.726,1188.6a1,1,0,0,1,.649-.208,1.015,1.015,0,0,1,.649.208.65.65,0,0,1,.259.525.717.717,0,0,1-.291.558.794.794,0,0,1,.39.706.744.744,0,0,1-.278.591,1.227,1.227,0,0,1-1.46,0,.75.75,0,0,1-.277-.591.8.8,0,0,1,.389-.706.714.714,0,0,1-.288-.558A.643.643,0,0,1,1197.726,1188.6Zm.269,2.1a.68.68,0,0,0,.757,0,.371.371,0,0,0,.179-.331.379.379,0,0,0-.171-.332.686.686,0,0,0-.772,0,.378.378,0,0,0-.17.332A.37.37,0,0,0,1197.995,1190.71Zm.037-1.248a.511.511,0,0,0,.342.12.517.517,0,0,0,.341-.12.37.37,0,0,0,0-.586.528.528,0,0,0-.341-.118.522.522,0,0,0-.342.118.368.368,0,0,0,0,.586Z" fill="#030504"/>
        <path id="Контур_171" data-name="Контур 171" d="M1203.409,1188.448v.42h-1.139v.675a.783.783,0,0,1,.386-.094.981.981,0,0,1,.653.231.781.781,0,0,1,.274.628.849.849,0,0,1-.286.658,1,1,0,0,1-.7.26,1.1,1.1,0,0,1-.869-.368l.243-.339c.021.022.049.046.082.076a1.234,1.234,0,0,0,.215.114.84.84,0,0,0,.355.073.578.578,0,0,0,.351-.118.4.4,0,0,0,.158-.343.406.406,0,0,0-.169-.351.7.7,0,0,0-.425-.123.979.979,0,0,0-.488.13l-.193-.211v-1.32Z" fill="#030504"/>
      </g>
      <g id="Сгруппировать_74" data-name="Сгруппировать 74">
        <path id="Контур_172" data-name="Контур 172" d="M1145.545,1217.058h-26.386v-27.467h26.386v1.308h-25.1v24.851h25.1Z" fill="#030504"/>
      </g>
      <g id="Сгруппировать_75" data-name="Сгруппировать 75">
        <path id="Контур_173" data-name="Контур 173" d="M1249.158,1217.058h-26.386v-1.308h25.1V1190.9h-25.1v-1.308h26.386Z" fill="#030504"/>
      </g>
    </g>
    <path id="Color_Overlay" data-name="Color Overlay" d="M1503.915,4081.6a1.354,1.354,0,0,1-.406-1.011,1.371,1.371,0,0,1,.413-1.018,1.354,1.354,0,0,1,.993-.41,1.4,1.4,0,0,1,.97.346l-.243.352a.959.959,0,0,0-.32-.19,1.2,1.2,0,0,0-.372-.052.936.936,0,0,0-.966.975.933.933,0,0,0,.271.7.894.894,0,0,0,.653.264,1.15,1.15,0,0,0,.644-.169v-.753h.455v.938a1.384,1.384,0,0,1-1.093.429A1.363,1.363,0,0,1,1503.915,4081.6Zm-7.95-.042.284-.348a1.286,1.286,0,0,0,.85.361.572.572,0,0,0,.349-.1.307.307,0,0,0,.13-.257.286.286,0,0,0-.123-.246,1.261,1.261,0,0,0-.417-.161,3.571,3.571,0,0,1-.452-.133,1,1,0,0,1-.275-.16.667.667,0,0,1-.24-.564.7.7,0,0,1,.272-.588,1.1,1.1,0,0,1,.674-.2,1.555,1.555,0,0,1,.511.087,1.339,1.339,0,0,1,.443.243l-.244.35a.874.874,0,0,0-.326-.181,1.2,1.2,0,0,0-.4-.072.587.587,0,0,0-.327.084.276.276,0,0,0-.126.248.288.288,0,0,0,.126.254,1.851,1.851,0,0,0,.544.19,1.469,1.469,0,0,1,.625.289.679.679,0,0,1,.211.542.731.731,0,0,1-.266.583,1.054,1.054,0,0,1-.7.224A1.625,1.625,0,0,1,1495.966,4081.556Zm-21.855.033a1.451,1.451,0,0,1,0-2.023,1.418,1.418,0,1,1,0,2.023Zm.335-1.715a1.034,1.034,0,0,0,0,1.407.935.935,0,0,0,1.354,0,1.036,1.036,0,0,0,0-1.407.933.933,0,0,0-1.354,0Zm36.078,2.1-1.531-2v2h-.454v-2.745h.454l1.569,2.049v-2.049h.455v2.745Zm-9.974,0v-2.745H1501v2.745Zm-8.82,0v-2.745h1.9v.436h-1.44v.727h1.293v.411h-1.293v.733h1.485v.438Zm-4.949,0v-2.745h.925a1.59,1.59,0,0,1,1.116.36,1.28,1.28,0,0,1,.39,1,1.355,1.355,0,0,1-.377,1.012,1.591,1.591,0,0,1-1.159.375Zm.455-.437h.506a1.084,1.084,0,0,0,.752-.238.9.9,0,0,0,.26-.7c0-.628-.355-.943-1.061-.943h-.457Zm-6.488.438-.643-.923h-.6v.923h-.456v-2.745h1a1.432,1.432,0,0,1,.882.212.814.814,0,0,1,.268.679.8.8,0,0,1-.583.854l.707,1Zm-1.242-1.343h.568a.821.821,0,0,0,.525-.123.493.493,0,0,0,.139-.389.425.425,0,0,0-.142-.37.957.957,0,0,0-.511-.1h-.578Zm-8.765,1.343v-2.745h.454v2.745Zm-3.045,0-.644-.923h-.6v.923H1466v-2.745h1a1.448,1.448,0,0,1,.886.212.816.816,0,0,1,.266.679.8.8,0,0,1-.583.854l.706,1Zm-1.243-1.343h.569a.827.827,0,0,0,.525-.123.5.5,0,0,0,.139-.389.423.423,0,0,0-.144-.37.944.944,0,0,0-.508-.1h-.58Zm-4.913,1.343v-2.745h1.9v.436H1462v.727h1.293v.411H1462v.733h1.487v.438Zm-3.7,0v-2.32h-.819v-.424h2.094v.424h-.818v2.32Zm-3.738,0-1.53-2v2h-.455v-2.745h.455l1.567,2.049v-2.049h.457v2.745Zm-5.121,0v-2.745h.457v2.745Zm69.632-.3v-1.308h25.1v-24.851h-25.1v-1.308H1545v27.468Zm-103.615,0v-27.468h26.387v1.308h-25.1v24.851h25.1v1.308Zm80.694-10.105a5.443,5.443,0,0,1-1.616-4.04,5.5,5.5,0,0,1,1.646-4.071,5.427,5.427,0,0,1,3.97-1.633,5.814,5.814,0,0,1,4.037,1.554l-1.249,1.836a4.716,4.716,0,0,0-1.337-.886,3.511,3.511,0,0,0-1.322-.244,3.137,3.137,0,0,0-2.316.949,3.837,3.837,0,0,0-.039,4.992,2.9,2.9,0,0,0,2.154.934,4.072,4.072,0,0,0,2.086-.488v-3.013h2.425v3.891a5.619,5.619,0,0,1-4.447,1.823A5.437,5.437,0,0,1,1495.693,4071.568Zm10.587,1.477v-10.971h7.787v2.181h-5.377v2.261h4.836v2.088h-4.836v2.275h5.545v2.166Zm-15.4,0-1-2.369h-4.526l-1,2.369h-2.564l4.663-10.971h2.332l4.665,10.971Zm-4.618-4.521h2.7l-1.344-3.185Zm-9.514,4.521v-8.852h-3.059v-2.118h8.527v2.118h-3.06v8.852Zm-7.229,0-5.144-6.874v6.874h-2.408v-10.971h2.255l5.3,7.063v-7.063h2.409v10.971Zm-12.617,0v-10.971h2.407v10.971Zm-7.662,0-4.342-10.971h2.612l2.749,6.984,2.751-6.984h2.609l-4.342,10.971Zm48.326-17.572.243-.338a.945.945,0,0,0,.083.075,1.1,1.1,0,0,0,.215.115.827.827,0,0,0,.354.073.574.574,0,0,0,.351-.118.4.4,0,0,0,.159-.342.409.409,0,0,0-.169-.35.693.693,0,0,0-.425-.124.98.98,0,0,0-.487.13l-.194-.211v-1.32h1.552v.42h-1.139v.675a.786.786,0,0,1,.386-.094.979.979,0,0,1,.653.231.781.781,0,0,1,.275.627.847.847,0,0,1-.287.659,1,1,0,0,1-.7.26A1.1,1.1,0,0,1,1497.567,4055.473Zm-4.081.127a.748.748,0,0,1-.277-.591.793.793,0,0,1,.388-.706.715.715,0,0,1-.289-.558.647.647,0,0,1,.259-.526,1.116,1.116,0,0,1,1.3,0,.653.653,0,0,1,.259.526.717.717,0,0,1-.291.558.792.792,0,0,1,.39.706.744.744,0,0,1-.279.591,1.225,1.225,0,0,1-1.459,0Zm.343-.938a.375.375,0,0,0-.17.332.37.37,0,0,0,.178.331.68.68,0,0,0,.756,0,.371.371,0,0,0,.179-.331.376.376,0,0,0-.171-.332.688.688,0,0,0-.772,0Zm.045-1.171a.368.368,0,0,0,0,.586.547.547,0,0,0,.683,0,.369.369,0,0,0,0-.586.555.555,0,0,0-.683,0Zm-4.908,2.072.227-.343a.81.81,0,0,0,.237.145.7.7,0,0,0,.263.063.6.6,0,0,0,.53-.248,1.182,1.182,0,0,0,.174-.669.954.954,0,0,1-.279.208.845.845,0,0,1-.4.1.83.83,0,0,1-.61-.246.878.878,0,0,1-.243-.649.849.849,0,0,1,.264-.654.928.928,0,0,1,.665-.247.894.894,0,0,1,.9.588,2,2,0,0,1,.14.761,2.338,2.338,0,0,1-.09.706,1.115,1.115,0,0,1-.244.448.964.964,0,0,1-.739.322A1.232,1.232,0,0,1,1488.966,4055.562Zm.458-2.008a.458.458,0,0,0-.146.348.513.513,0,0,0,.132.358.479.479,0,0,0,.368.144.584.584,0,0,0,.389-.13.429.429,0,0,0,.156-.342.492.492,0,0,0-.15-.361.509.509,0,0,0-.376-.154A.534.534,0,0,0,1489.424,4053.554Zm-15.772,1.885a1.466,1.466,0,0,1,.008-2.029,1.412,1.412,0,0,1,1.039-.41,1.348,1.348,0,0,1,1.048.47l-.288.323a1.327,1.327,0,0,0-.367-.264,1.007,1.007,0,0,0-.4-.074.947.947,0,0,0-.686.269.912.912,0,0,0-.279.687.954.954,0,0,0,.277.7.879.879,0,0,0,.655.281.943.943,0,0,0,.406-.079,1.417,1.417,0,0,0,.354-.258l.294.306a1.345,1.345,0,0,1-1.041.482A1.38,1.38,0,0,1,1473.651,4055.439Zm-13.106-.042.284-.348a1.282,1.282,0,0,0,.85.361.567.567,0,0,0,.349-.1.3.3,0,0,0,.13-.256.284.284,0,0,0-.123-.246,1.3,1.3,0,0,0-.417-.161,3.761,3.761,0,0,1-.454-.133,1.073,1.073,0,0,1-.274-.159.671.671,0,0,1-.239-.565.7.7,0,0,1,.271-.588,1.1,1.1,0,0,1,.673-.205,1.53,1.53,0,0,1,.513.088,1.31,1.31,0,0,1,.443.241l-.244.352a.908.908,0,0,0-.325-.181,1.211,1.211,0,0,0-.4-.072.578.578,0,0,0-.326.084.275.275,0,0,0-.126.247.289.289,0,0,0,.126.255,1.857,1.857,0,0,0,.542.192,1.454,1.454,0,0,1,.626.287.686.686,0,0,1,.212.543.729.729,0,0,1-.266.583,1.061,1.061,0,0,1-.7.223A1.623,1.623,0,0,1,1460.546,4055.4Zm25.38.414v-2.334h-.547v-.411h.979v2.745Zm-7.729,0v-2.745h1.894v.435h-1.44v.728h1.295v.411h-1.295v.735h1.486v.437Zm-7.947,0-1.53-2v2h-.456v-2.745h.456l1.566,2.048v-2.048h.457v2.745Zm-5.122,0v-2.745h.458v2.745Z" fill="#666"/>
  </g>
</svg>
