<svg xmlns="http://www.w3.org/2000/svg" width="98" height="26" viewBox="0 0 98 26">
  <g id="Vector_Smart_Object" data-name="Vector Smart Object" transform="translate(-638 -4054)">
    <g id="Vector_Smart_Object-2" data-name="Vector Smart Object" transform="translate(-258.702 3134.25)">
      <g id="Сгруппировать_13" data-name="Сгруппировать 13">
        <path id="Контур_26" data-name="Контур 26" d="M902.112,930.611l2.776-6.941h2.634l-4.38,10.9h-2.058l-4.382-10.9h2.637Z" fill="#1a1818"/>
        <path id="Контур_27" data-name="Контур 27" d="M907.258,923.671h2.431v10.9h-2.431Z" fill="#1a1818"/>
        <path id="Контур_28" data-name="Контур 28" d="M918.436,923.671h2.432v10.9h-2.432l-5.192-6.833v6.833h-2.431v-10.9h2.276l5.346,7.02Z" fill="#1a1818"/>
        <path id="Контур_29" data-name="Контур 29" d="M926.6,925.777v8.8h-2.431v-8.8h-3.088v-2.106h8.607v2.106Z" fill="#1a1818"/>
        <path id="Контур_30" data-name="Контур 30" d="M936.878,934.575l-1.012-2.356H931.3l-1.013,2.356H927.7l4.708-10.9h2.354l4.707,10.9Zm-3.288-7.66-1.373,3.166h2.73Z" fill="#1a1818"/>
        <path id="Контур_31" data-name="Контур 31" d="M946.249,929.022H948.7v3.867a5.715,5.715,0,0,1-4.489,1.811,5.536,5.536,0,0,1-4.03-1.592,5.371,5.371,0,0,1-1.631-4.017,5.427,5.427,0,0,1,1.662-4.047,5.521,5.521,0,0,1,4.007-1.622,5.919,5.919,0,0,1,4.076,1.544l-1.262,1.825a4.8,4.8,0,0,0-1.349-.881,3.6,3.6,0,0,0-1.334-.242,3.2,3.2,0,0,0-2.339.943,3.774,3.774,0,0,0-.039,4.962,2.946,2.946,0,0,0,2.175.928,4.169,4.169,0,0,0,2.106-.485Z" fill="#1a1818"/>
        <path id="Контур_32" data-name="Контур 32" d="M957.161,923.671v2.168h-5.426v2.246h4.88v2.075h-4.88v2.262h5.6v2.153h-8.028v-10.9Z" fill="#1a1818"/>
      </g>
      <g id="Сгруппировать_14" data-name="Сгруппировать 14">
        <path id="Контур_33" data-name="Контур 33" d="M911.536,940.718H912v2.727h-.46Z" fill="#1a1818"/>
        <path id="Контур_34" data-name="Контур 34" d="M915.574,940.718h.46v2.727h-.5l-1.542-1.99v1.99h-.461v-2.727h.461l1.581,2.036Z" fill="#1a1818"/>
        <path id="Контур_35" data-name="Контур 35" d="M918.6,941.139v2.306h-.46v-2.306h-.826v-.421h2.112v.421Z" fill="#1a1818"/>
        <path id="Контур_36" data-name="Контур 36" d="M922.618,940.718v.433h-1.455v.723h1.3v.408h-1.3v.729h1.5v.434H920.7v-2.727Z" fill="#1a1818"/>
        <path id="Контур_37" data-name="Контур 37" d="M926.205,941.6a.79.79,0,0,1-.587.85l.713.992h-.585l-.651-.917h-.6v.917h-.461v-2.727h1.015a1.47,1.47,0,0,1,.891.211A.8.8,0,0,1,926.205,941.6Zm-.611.386a.487.487,0,0,0,.14-.387.422.422,0,0,0-.143-.368.981.981,0,0,0-.516-.1h-.585v.975h.572A.844.844,0,0,0,925.595,941.989Z" fill="#1a1818"/>
        <path id="Контур_38" data-name="Контур 38" d="M927.65,940.718h.459v2.727h-.459Z" fill="#1a1818"/>
        <path id="Контур_39" data-name="Контур 39" d="M931.926,943.067a1.493,1.493,0,0,1-2.044,0,1.43,1.43,0,0,1,0-2.011,1.493,1.493,0,0,1,2.044,0,1.433,1.433,0,0,1,0,2.011Zm-.338-1.706a.955.955,0,0,0-1.368,0,1.017,1.017,0,0,0,0,1.4.955.955,0,0,0,1.368,0,1.017,1.017,0,0,0,0-1.4Z" fill="#1a1818"/>
        <path id="Контур_40" data-name="Контур 40" d="M935.874,941.6a.793.793,0,0,1-.589.85l.712.992h-.585l-.651-.917h-.6v.917H933.7v-2.727h1.012a1.484,1.484,0,0,1,.894.211A.806.806,0,0,1,935.874,941.6Zm-.612.386a.491.491,0,0,0,.139-.387.419.419,0,0,0-.144-.368.967.967,0,0,0-.513-.1h-.586v.975h.574A.845.845,0,0,0,935.262,941.989Z" fill="#1a1818"/>
        <path id="Контур_41" data-name="Контур 41" d="M941.224,941.075a1.271,1.271,0,0,1,.4.992,1.338,1.338,0,0,1-.383,1.006,1.624,1.624,0,0,1-1.171.372h-.9v-2.727h.937A1.619,1.619,0,0,1,941.224,941.075Zm-.07,1q0-.936-1.072-.936h-.461v1.868h.512a1.1,1.1,0,0,0,.757-.237A.884.884,0,0,0,941.154,942.079Z" fill="#1a1818"/>
        <path id="Контур_42" data-name="Контур 42" d="M944.9,940.718v.433h-1.454v.723h1.3v.408h-1.3v.729h1.5v.434H942.99v-2.727Z" fill="#1a1818"/>
        <path id="Контур_43" data-name="Контур 43" d="M947.142,941.076a.591.591,0,0,0-.329.083.27.27,0,0,0-.127.246.284.284,0,0,0,.127.253,1.947,1.947,0,0,0,.547.19,1.5,1.5,0,0,1,.633.286.673.673,0,0,1,.213.539.72.72,0,0,1-.269.578,1.078,1.078,0,0,1-.705.222,1.656,1.656,0,0,1-1.134-.441l.286-.346a1.308,1.308,0,0,0,.859.357.578.578,0,0,0,.352-.095.3.3,0,0,0,.133-.255.284.284,0,0,0-.125-.244,1.288,1.288,0,0,0-.421-.16,3.771,3.771,0,0,1-.457-.133,1.053,1.053,0,0,1-.277-.159.659.659,0,0,1-.24-.562.685.685,0,0,1,.274-.584,1.11,1.11,0,0,1,.68-.2,1.589,1.589,0,0,1,.518.087,1.328,1.328,0,0,1,.444.241l-.244.348a.927.927,0,0,0-.329-.181A1.259,1.259,0,0,0,947.142,941.076Z" fill="#1a1818"/>
        <path id="Контур_44" data-name="Контур 44" d="M949.553,940.718h.46v2.727h-.46Z" fill="#1a1818"/>
        <path id="Контур_45" data-name="Контур 45" d="M953.435,942.118h.46v.932a1.414,1.414,0,0,1-1.1.425,1.387,1.387,0,0,1-1.011-.4,1.438,1.438,0,0,1,.008-2.018,1.378,1.378,0,0,1,1-.407,1.426,1.426,0,0,1,.978.343l-.245.351a.953.953,0,0,0-.321-.189,1.223,1.223,0,0,0-.378-.053.968.968,0,0,0-.692.266,1.022,1.022,0,0,0-.008,1.4.915.915,0,0,0,.66.263,1.183,1.183,0,0,0,.65-.168Z" fill="#1a1818"/>
        <path id="Контур_46" data-name="Контур 46" d="M957.32,940.718h.461v2.727h-.5l-1.542-1.99v1.99h-.461v-2.727h.461l1.58,2.036Z" fill="#1a1818"/>
      </g>
      <g id="Сгруппировать_15" data-name="Сгруппировать 15">
        <rect id="Прямоугольник_10" data-name="Прямоугольник 10" width="1.949" height="26" transform="translate(963.681 919.75)" fill="#030504"/>
      </g>
      <g id="Сгруппировать_18" data-name="Сгруппировать 18">
        <g id="Сгруппировать_16" data-name="Сгруппировать 16">
          <path id="Контур_47" data-name="Контур 47" d="M987.324,935.784a12.687,12.687,0,0,1-6.527-1.644c-3.355-1.993-5.38-5.708-6.017-11.044a.813.813,0,0,1,.712-.9.824.824,0,0,1,.9.712c.573,4.806,2.333,8.116,5.231,9.837,5.021,2.982,11.892.3,11.96.268a.813.813,0,0,1,.6,1.511A20.263,20.263,0,0,1,987.324,935.784Z" fill="#1a1818"/>
        </g>
        <g id="Сгруппировать_17" data-name="Сгруппировать 17">
          <path id="Контур_48" data-name="Контур 48" d="M993.888,943.3a.2.2,0,0,1-.162-.081l-6-8-16.115,8.064a.2.2,0,0,1-.25-.055.2.2,0,0,1,0-.255L979.5,932.8a.2.2,0,0,1,.317.254l-7.554,9.45,15.437-7.725a.2.2,0,0,1,.255.06l5.5,7.333-1.789-7.162a.2.2,0,0,1,.394-.1l2.033,8.139a.2.2,0,0,1-.109.233A.208.208,0,0,1,993.888,943.3Z" fill="#1a1818"/>
        </g>
      </g>
    </g>
    <path id="Color_Overlay" data-name="Color Overlay" d="M704.978,4080v-26h1.95v26Zm-11.9-2.675a1.339,1.339,0,0,1-.41-1,1.354,1.354,0,0,1,.417-1.013,1.374,1.374,0,0,1,1-.406,1.424,1.424,0,0,1,.978.343l-.246.351a.925.925,0,0,0-.32-.188,1.2,1.2,0,0,0-.379-.053.968.968,0,0,0-.692.266,1.023,1.023,0,0,0-.008,1.4.914.914,0,0,0,.66.263,1.179,1.179,0,0,0,.649-.168v-.75h.461v.933a1.414,1.414,0,0,1-1.1.426A1.384,1.384,0,0,1,693.08,4077.325Zm-5.685-.041.287-.345a1.307,1.307,0,0,0,.858.357.574.574,0,0,0,.352-.1.3.3,0,0,0,.133-.254.286.286,0,0,0-.125-.245,1.291,1.291,0,0,0-.422-.16,4.07,4.07,0,0,1-.457-.132,1.1,1.1,0,0,1-.276-.159.659.659,0,0,1-.241-.561.688.688,0,0,1,.273-.584,1.111,1.111,0,0,1,.68-.2,1.586,1.586,0,0,1,.518.087,1.324,1.324,0,0,1,.445.241l-.246.348a.954.954,0,0,0-.328-.181,1.255,1.255,0,0,0-.409-.07.592.592,0,0,0-.328.083.268.268,0,0,0-.128.246.283.283,0,0,0,.128.254,1.977,1.977,0,0,0,.546.19,1.5,1.5,0,0,1,.634.285.675.675,0,0,1,.212.54.717.717,0,0,1-.268.579,1.076,1.076,0,0,1-.706.223A1.66,1.66,0,0,1,687.395,4077.284Zm-16.215.033a1.433,1.433,0,0,1,0-2.012,1.5,1.5,0,0,1,2.044,0,1.433,1.433,0,0,1,0,2.012,1.5,1.5,0,0,1-2.044,0Zm.338-1.706a1.016,1.016,0,0,0,0,1.4.954.954,0,0,0,1.368,0,1.016,1.016,0,0,0,0-1.4.955.955,0,0,0-1.368,0Zm27.063,2.084-1.543-1.99v1.99h-.461v-2.727h.461l1.581,2.035v-2.035h.461v2.727Zm-7.73,0v-2.727h.46v2.727Zm-6.563,0v-2.727H686.2v.432h-1.453v.723h1.3v.408h-1.3v.729h1.5v.434Zm-3.826,0v-2.727h.936a1.616,1.616,0,0,1,1.125.357,1.271,1.271,0,0,1,.394.991,1.34,1.34,0,0,1-.382,1.007,1.623,1.623,0,0,1-1.171.372Zm.458-.434h.512a1.094,1.094,0,0,0,.758-.237.885.885,0,0,0,.264-.7q0-.937-1.072-.937h-.462Zm-4.207.434-.651-.916h-.6v.916H675v-2.727h1.012a1.483,1.483,0,0,1,.894.21.807.807,0,0,1,.269.675.792.792,0,0,1-.589.85l.712.992Zm-1.255-1.335h.574a.849.849,0,0,0,.529-.12.491.491,0,0,0,.139-.388.421.421,0,0,0-.144-.369.975.975,0,0,0-.513-.1h-.586Zm-6.508,1.335v-2.727h.459v2.727Zm-1.9,0-.65-.916h-.6v.916h-.462v-2.727h1.015a1.472,1.472,0,0,1,.892.21.8.8,0,0,1,.268.675.789.789,0,0,1-.587.85l.713.992Zm-1.254-1.335h.571a.85.85,0,0,0,.531-.12.491.491,0,0,0,.14-.388.425.425,0,0,0-.142-.369.993.993,0,0,0-.516-.1h-.585ZM662,4077.695v-2.727h1.915v.432h-1.455v.723h1.3v.408h-1.3v.729h1.5v.434Zm-2.565,0v-2.306h-.826v-.421h2.112v.421H659.9v2.306Zm-2.6,0-1.542-1.99v1.99h-.462v-2.727h.462l1.58,2.035v-2.035h.46v2.727Zm-4,0v-2.727h.461v2.727Zm59.827-.217a.2.2,0,0,1,0-.255l7.929-9.919c-2.462-2.134-3.978-5.474-4.513-9.958a.814.814,0,0,1,.712-.905.825.825,0,0,1,.9.713c.573,4.806,2.334,8.116,5.23,9.838,5.022,2.982,11.892.3,11.962.266a.813.813,0,0,1,.6,1.511,17.105,17.105,0,0,1-2.076.645l1.97,7.887a.2.2,0,0,1-.109.232.208.208,0,0,1-.087.02.2.2,0,0,1-.163-.081l-5.589-7.457c-.267.011-.54.018-.814.018-.229,0-.462,0-.7-.014l-15.016,7.514a.188.188,0,0,1-.089.022A.207.207,0,0,1,712.661,4077.478Zm.9-.724,13.57-6.79a12.021,12.021,0,0,1-5.033-1.575,10.1,10.1,0,0,1-1.192-.825Zm16.365-6.768,4.824,6.437-1.727-6.912A20.773,20.773,0,0,1,729.921,4069.986Zm-48.447-2.628a5.372,5.372,0,0,1-1.63-4.016,5.427,5.427,0,0,1,1.662-4.048,5.516,5.516,0,0,1,4.007-1.623,5.915,5.915,0,0,1,4.075,1.545l-1.261,1.825a4.822,4.822,0,0,0-1.349-.882,3.608,3.608,0,0,0-1.334-.242,3.2,3.2,0,0,0-2.339.943,3.775,3.775,0,0,0-.039,4.962,2.947,2.947,0,0,0,2.175.928,4.172,4.172,0,0,0,2.106-.484v-2.994h2.446v3.867a5.718,5.718,0,0,1-4.489,1.81A5.539,5.539,0,0,1,681.474,4067.357Zm9.128,1.468V4057.92h7.857v2.169h-5.426v2.247h4.879v2.074h-4.879v2.262h5.6v2.153Zm-12.427,0-1.013-2.356H672.6l-1.013,2.356h-2.589l4.709-10.905h2.353l4.707,10.905Zm-4.662-4.5h2.73l-1.357-3.165Zm-8.043,4.5v-8.8h-3.088v-2.106h8.607v2.106H667.9v8.8Zm-5.737,0-5.191-6.833v6.833h-2.431V4057.92h2.275l5.347,7.02v-7.02h2.432v10.905Zm-11.178,0v-10.248l-4.116,10.248h-2.058L638,4057.92h2.638l2.772,6.941,2.777-6.941h4.8v10.905Z" fill="#666"/>
  </g>
</svg>
