<svg xmlns="http://www.w3.org/2000/svg" width="95" height="46" viewBox="0 0 95 46">
  <g id="Vector_Smart_Object" data-name="Vector Smart Object" transform="translate(-622.109 -909.634)">
    <g id="Сгруппировать_1" data-name="Сгруппировать 1">
      <rect id="Прямоугольник_1" data-name="Прямоугольник 1" width="1.284" height="45.352" transform="translate(647.789 910.282)" fill="#1a1818"/>
    </g>
    <g id="Сгруппировать_2" data-name="Сгруппировать 2">
      <path id="Контур_1" data-name="Контур 1" d="M663.505,921.885a4.858,4.858,0,0,1-6.7,0,4.77,4.77,0,0,1,0-6.673,4.858,4.858,0,0,1,6.7,0,4.77,4.77,0,0,1,0,6.673Zm-.68-3.33a2.98,2.98,0,0,0-.77-2.067,2.525,2.525,0,0,0-3.788,0,3.149,3.149,0,0,0,0,4.127,2.537,2.537,0,0,0,3.788,0A2.955,2.955,0,0,0,662.825,918.555Z" fill="#1a1818"/>
      <path id="Контур_2" data-name="Контур 2" d="M666.561,923.136v-9.057h2v7.255h3.826v1.8Z" fill="#1a1818"/>
      <path id="Контур_3" data-name="Контур 3" d="M680.713,915.264a4.269,4.269,0,0,1,1.284,3.3,4.48,4.48,0,0,1-1.253,3.342,5.254,5.254,0,0,1-3.821,1.231h-3.068v-9.057h3.17A5.241,5.241,0,0,1,680.713,915.264Zm-1.471,5.384a2.665,2.665,0,0,0,.738-2.034,2.733,2.733,0,0,0-.738-2.054,3.14,3.14,0,0,0-2.266-.719h-1.118v5.507h1.272A2.963,2.963,0,0,0,679.241,920.648Z" fill="#1a1818"/>
      <path id="Контур_4" data-name="Контур 4" d="M659.268,932.8l2.286-5.766h2.17l-3.608,9.057h-1.695l-3.608-9.057h2.17Z" fill="#1a1818"/>
      <path id="Контур_5" data-name="Контур 5" d="M664.789,927.036h2v9.057h-2Z" fill="#1a1818"/>
      <path id="Контур_6" data-name="Контур 6" d="M675.28,927.036h2v9.057h-2L671,930.418v5.675h-2v-9.057h1.875l4.405,5.831Z" fill="#1a1818"/>
      <path id="Контур_7" data-name="Контур 7" d="M683.291,928.784v7.309h-2v-7.309h-2.544v-1.748h7.088v1.748Z" fill="#1a1818"/>
      <path id="Контур_8" data-name="Контур 8" d="M693.038,936.094l-.835-1.957h-3.762l-.835,1.957h-2.132l3.878-9.057h1.939l3.878,9.057Zm-2.709-6.362-1.13,2.63h2.247Z" fill="#1a1818"/>
      <path id="Контур_9" data-name="Контур 9" d="M702.039,931.479h2.016v3.215a4.694,4.694,0,0,1-3.7,1.5,4.546,4.546,0,0,1-3.318-1.322,4.71,4.71,0,0,1,3.326-8.047,4.856,4.856,0,0,1,3.358,1.283l-1.04,1.516a3.98,3.98,0,0,0-1.111-.732,2.971,2.971,0,0,0-1.1-.2,2.615,2.615,0,0,0-1.926.784,3.15,3.15,0,0,0-.032,4.121,2.409,2.409,0,0,0,1.791.771,3.409,3.409,0,0,0,1.733-.4Z" fill="#1a1818"/>
      <path id="Контур_10" data-name="Контур 10" d="M712.311,927.036v1.8h-4.47V930.7h4.02v1.723h-4.02v1.879h4.61v1.788H705.84v-9.057Z" fill="#1a1818"/>
    </g>
    <g id="Сгруппировать_3" data-name="Сгруппировать 3">
      <path id="Контур_11" data-name="Контур 11" d="M655.225,944.139h.455v2.719h-.455Z" fill="#1a1818"/>
      <path id="Контур_12" data-name="Контур 12" d="M660.371,944.139h.455v2.719h-.493l-1.525-1.984v1.984h-.455v-2.719h.455l1.564,2.029Z" fill="#1a1818"/>
      <path id="Контур_13" data-name="Контур 13" d="M664.516,944.559v2.3h-.455v-2.3h-.817v-.42h2.088v.42Z" fill="#1a1818"/>
      <path id="Контур_14" data-name="Контур 14" d="M669.642,944.139v.431h-1.436v.72h1.29v.407h-1.29v.727h1.483v.433h-1.938v-2.719Z" fill="#1a1818"/>
      <path id="Контур_15" data-name="Контур 15" d="M674.346,945.021a.79.79,0,0,1-.582.847l.7.989h-.579l-.642-.914h-.6v.914H672.2v-2.719h1a1.45,1.45,0,0,1,.882.21A.807.807,0,0,1,674.346,945.021Zm-.6.385a.491.491,0,0,0,.139-.386.42.42,0,0,0-.143-.367.957.957,0,0,0-.51-.1h-.577v.972h.566A.827.827,0,0,0,673.742,945.406Z" fill="#1a1818"/>
      <path id="Контур_16" data-name="Контур 16" d="M676.927,944.139h.455v2.719h-.455Z" fill="#1a1818"/>
      <path id="Контур_17" data-name="Контур 17" d="M682.309,946.48a1.465,1.465,0,0,1-2.018,0,1.434,1.434,0,0,1,0-2,1.465,1.465,0,0,1,2.018,0,1.438,1.438,0,0,1,0,2Zm-.333-1.7a.94.94,0,0,0-1.353,0,1.023,1.023,0,0,0,0,1.4.94.94,0,0,0,1.353,0,1.023,1.023,0,0,0,0-1.4Z" fill="#1a1818"/>
      <path id="Контур_18" data-name="Контур 18" d="M687.365,945.021a.787.787,0,0,1-.58.847l.7.989h-.578l-.643-.914h-.6v.914h-.456v-2.719h1a1.443,1.443,0,0,1,.881.21A.8.8,0,0,1,687.365,945.021Zm-.6.385a.487.487,0,0,0,.139-.386.423.423,0,0,0-.141-.367.963.963,0,0,0-.51-.1h-.578v.972h.565A.832.832,0,0,0,686.762,945.406Z" fill="#1a1818"/>
      <path id="Контур_19" data-name="Контур 19" d="M694.966,944.5a1.276,1.276,0,0,1,.389.989,1.339,1.339,0,0,1-.378,1,1.6,1.6,0,0,1-1.156.371h-.9v-2.719h.926A1.6,1.6,0,0,1,694.966,944.5Zm-.071,1q0-.933-1.058-.933h-.455v1.862h.5a1.079,1.079,0,0,0,.749-.236A.885.885,0,0,0,694.9,945.5Z" fill="#1a1818"/>
      <path id="Контур_20" data-name="Контур 20" d="M699.76,944.139v.431h-1.438v.72h1.289v.407h-1.289v.727H699.8v.433h-1.938v-2.719Z" fill="#1a1818"/>
      <path id="Контур_21" data-name="Контур 21" d="M703.128,944.5a.582.582,0,0,0-.326.083.268.268,0,0,0-.127.245.282.282,0,0,0,.127.253,1.912,1.912,0,0,0,.542.189,1.475,1.475,0,0,1,.624.285.678.678,0,0,1,.209.538.716.716,0,0,1-.266.577,1.053,1.053,0,0,1-.7.222,1.63,1.63,0,0,1-1.121-.439l.285-.345a1.282,1.282,0,0,0,.848.356.57.57,0,0,0,.348-.095.3.3,0,0,0,.13-.254.283.283,0,0,0-.122-.244,1.265,1.265,0,0,0-.417-.159,3.735,3.735,0,0,1-.451-.132,1.017,1.017,0,0,1-.273-.158.657.657,0,0,1-.239-.56.682.682,0,0,1,.272-.582,1.088,1.088,0,0,1,.672-.2,1.569,1.569,0,0,1,.512.087,1.3,1.3,0,0,1,.439.24l-.243.347a.872.872,0,0,0-.325-.18A1.225,1.225,0,0,0,703.128,944.5Z" fill="#1a1818"/>
      <path id="Контур_22" data-name="Контур 22" d="M706.665,944.139h.454v2.719h-.454Z" fill="#1a1818"/>
      <path id="Контур_23" data-name="Контур 23" d="M711.658,945.535h.456v.929a1.4,1.4,0,0,1-1.091.424,1.36,1.36,0,0,1-1-.4,1.339,1.339,0,0,1-.4-1,1.394,1.394,0,0,1,1.4-1.415,1.4,1.4,0,0,1,.967.342l-.243.35a.944.944,0,0,0-.318-.188,1.188,1.188,0,0,0-.371-.053.949.949,0,0,0-.686.266,1.03,1.03,0,0,0-.009,1.4.908.908,0,0,0,.655.262,1.158,1.158,0,0,0,.641-.167Z" fill="#1a1818"/>
      <path id="Контур_24" data-name="Контур 24" d="M716.654,944.139h.455v2.719h-.493l-1.525-1.984v1.984h-.455v-2.719h.455l1.564,2.029Z" fill="#1a1818"/>
    </g>
    <g id="Сгруппировать_4" data-name="Сгруппировать 4">
      <path id="Контур_25" data-name="Контур 25" d="M649.073,927.127H622.109V909.634h26.964Zm-25.68-1.3h24.4v-14.9h-24.4Z" fill="#1a1818"/>
    </g>
    <g id="Сгруппировать_5" data-name="Сгруппировать 5">
      <rect id="Прямоугольник_2" data-name="Прямоугольник 2" width="9.079" height="1.296" transform="translate(622.297 916.302) rotate(-45)" fill="#1a1818"/>
    </g>
    <g id="Сгруппировать_6" data-name="Сгруппировать 6">
      <rect id="Прямоугольник_3" data-name="Прямоугольник 3" width="18.159" height="1.296" transform="translate(622.297 922.781) rotate(-45)" fill="#1a1818"/>
    </g>
    <g id="Сгруппировать_7" data-name="Сгруппировать 7">
      <rect id="Прямоугольник_4" data-name="Прямоугольник 4" width="22.699" height="1.296" transform="translate(625.507 926.021) rotate(-45)" fill="#1a1818"/>
    </g>
    <g id="Сгруппировать_8" data-name="Сгруппировать 8">
      <rect id="Прямоугольник_5" data-name="Прямоугольник 5" width="1.284" height="4.581" transform="translate(628.717 923.698) rotate(-45)" fill="#1a1818"/>
    </g>
    <g id="Сгруппировать_9" data-name="Сгруппировать 9">
      <rect id="Прямоугольник_6" data-name="Прямоугольник 6" width="1.284" height="9.163" transform="translate(631.927 920.458) rotate(-45)" fill="#1a1818"/>
    </g>
    <g id="Сгруппировать_10" data-name="Сгруппировать 10">
      <rect id="Прямоугольник_7" data-name="Прямоугольник 7" width="1.284" height="13.744" transform="translate(635.137 917.219) rotate(-45)" fill="#1a1818"/>
    </g>
    <g id="Сгруппировать_11" data-name="Сгруппировать 11">
      <rect id="Прямоугольник_8" data-name="Прямоугольник 8" width="1.284" height="13.744" transform="translate(638.347 913.979) rotate(-45)" fill="#1a1818"/>
    </g>
    <g id="Сгруппировать_12" data-name="Сгруппировать 12">
      <rect id="Прямоугольник_9" data-name="Прямоугольник 9" width="1.284" height="9.163" transform="translate(641.557 910.74) rotate(-45)" fill="#1a1818"/>
    </g>
  </g>
</svg>
